<svg xmlns="http://www.w3.org/2000/svg" width="1600" height="657" viewBox="0 0 1600 657" font-family="Segoe UI, Helvetica, Arial, sans-serif">
  <rect width="1600" height="657" fill="#ffffff"/>
  <text x="36.0" y="77.0" text-anchor="start" font-size="41" fill="#2e7d32" font-weight="700">Savithri's band</text>
  <path d="M36.0 105.7 L140.2 105.7 Q150.2 105.7 150.2 115.7 L150.2 294.1 Q150.2 304.1 140.2 304.1 L36.0 304.1 Z" fill="#e9f4ec" stroke="none"/>
  <path d="M36.0 105.7 L140.2 105.7 Q150.2 105.7 150.2 115.7 L150.2 294.1 Q150.2 304.1 140.2 304.1 L36.0 304.1" fill="none" stroke="#2e7d32" stroke-width="2.5" stroke-linejoin="round"/>
  <rect x="150.2" y="105.7" width="214.2" height="198.4" rx="10" fill="#2e7d32" stroke="#2e7d32" stroke-width="2.5"/>
  <text x="257.3" y="219.2" text-anchor="middle" font-size="41" fill="#ffffff" font-weight="700">Beacons</text>
  <rect x="364.4" y="105.7" width="100.0" height="198.4" rx="10" fill="#e9f4ec" stroke="#2e7d32" stroke-width="2.5"/>
  <rect x="464.4" y="105.7" width="371.3" height="198.4" rx="10" fill="#e9f4ec" stroke="#2e7d32" stroke-width="2.5"/>
  <text x="650.1" y="192.2" text-anchor="middle" font-size="41" fill="#2e7d32" font-weight="700">Receives</text>
  <text x="650.1" y="246.3" text-anchor="middle" font-size="41" fill="#2b2b2b">his frame 1.</text>
  <rect x="835.7" y="105.7" width="35.7" height="198.4" rx="10" fill="#e9f4ec" stroke="#2e7d32" stroke-width="2.5"/>
  <rect x="871.4" y="105.7" width="371.3" height="198.4" rx="10" fill="#2e7d32" stroke="#2e7d32" stroke-width="2.5"/>
  <text x="1057.0" y="192.2" text-anchor="middle" font-size="41" fill="#ffffff" font-weight="700">Sends</text>
  <text x="1057.0" y="246.3" text-anchor="middle" font-size="41" fill="#ffffff">her frame 1.</text>
  <rect x="1242.7" y="105.7" width="92.8" height="198.4" rx="10" fill="#e9f4ec" stroke="#2e7d32" stroke-width="2.5"/>
  <path d="M1564.0 105.7 L1345.5 105.7 Q1335.5 105.7 1335.5 115.7 L1335.5 294.1 Q1335.5 304.1 1345.5 304.1 L1564.0 304.1 Z" fill="#e9f4ec" stroke="none"/>
  <path d="M1564.0 105.7 L1345.5 105.7 Q1335.5 105.7 1335.5 115.7 L1335.5 294.1 Q1335.5 304.1 1345.5 304.1 L1564.0 304.1" fill="none" stroke="#2e7d32" stroke-width="2.5" stroke-linejoin="round"/>
  <text x="1449.8" y="165.1" text-anchor="middle" font-size="41" fill="#2e7d32" font-weight="700">Receives</text>
  <text x="1449.8" y="219.2" text-anchor="middle" font-size="41" fill="#2b2b2b">his</text>
  <text x="1449.8" y="273.4" text-anchor="middle" font-size="41" fill="#2b2b2b">frame 2.</text>
  <text x="36.0" y="394.3" text-anchor="start" font-size="41" fill="#2f5fae" font-weight="700">Rohit's band</text>
  <path d="M36.0 423.0 L218.8 423.0 Q228.8 423.0 228.8 433.0 L228.8 611.3 Q228.8 621.3 218.8 621.3 L36.0 621.3 Z" fill="#e9f1fc" stroke="none"/>
  <path d="M36.0 423.0 L218.8 423.0 Q228.8 423.0 228.8 433.0 L228.8 611.3 Q228.8 621.3 218.8 621.3 L36.0 621.3" fill="none" stroke="#2f5fae" stroke-width="2.5" stroke-linejoin="round"/>
  <rect x="228.8" y="423.0" width="214.2" height="198.4" rx="10" fill="#e9f1fc" stroke="#2f5fae" stroke-width="2.5"/>
  <text x="335.9" y="482.4" text-anchor="middle" font-size="41" fill="#2f5fae" font-weight="700">Sees</text>
  <text x="335.9" y="536.5" text-anchor="middle" font-size="41" fill="#2b2b2b">her</text>
  <text x="335.9" y="590.6" text-anchor="middle" font-size="41" fill="#2b2b2b">beacon.</text>
  <rect x="443.0" y="423.0" width="371.3" height="198.4" rx="10" fill="#2f5fae" stroke="#2f5fae" stroke-width="2.5"/>
  <text x="628.6" y="509.4" text-anchor="middle" font-size="41" fill="#ffffff" font-weight="700">Sends</text>
  <text x="628.6" y="563.5" text-anchor="middle" font-size="41" fill="#ffffff">his frame 1.</text>
  <rect x="814.3" y="423.0" width="100.0" height="198.4" rx="10" fill="#e9f1fc" stroke="#2f5fae" stroke-width="2.5"/>
  <rect x="914.2" y="423.0" width="371.3" height="198.4" rx="10" fill="#e9f1fc" stroke="#2f5fae" stroke-width="2.5"/>
  <text x="1099.9" y="509.4" text-anchor="middle" font-size="41" fill="#2f5fae" font-weight="700">Receives</text>
  <text x="1099.9" y="563.5" text-anchor="middle" font-size="41" fill="#2b2b2b">her frame 1.</text>
  <rect x="1285.5" y="423.0" width="35.7" height="198.4" rx="10" fill="#e9f1fc" stroke="#2f5fae" stroke-width="2.5"/>
  <path d="M1564.0 423.0 L1331.2 423.0 Q1321.2 423.0 1321.2 433.0 L1321.2 611.3 Q1321.2 621.3 1331.2 621.3 L1564.0 621.3 Z" fill="#2f5fae" stroke="none"/>
  <path d="M1564.0 423.0 L1331.2 423.0 Q1321.2 423.0 1321.2 433.0 L1321.2 611.3 Q1321.2 621.3 1331.2 621.3 L1564.0 621.3" fill="none" stroke="#2f5fae" stroke-width="2.5" stroke-linejoin="round"/>
  <text x="1442.6" y="482.4" text-anchor="middle" font-size="41" fill="#ffffff" font-weight="700">Sends</text>
  <text x="1442.6" y="536.5" text-anchor="middle" font-size="41" fill="#ffffff">his</text>
  <text x="1442.6" y="590.6" text-anchor="middle" font-size="41" fill="#ffffff">frame 2.</text>
</svg>
